<svg xmlns="http://www.w3.org/2000/svg" viewBox="0 0 105.77 25.31"><title>FXStreet_logo_blue</title><polygon points="101.8 3.19 101.8 25.3 97.81 25.3 97.81 3.19 93.83 3.19 93.83 0.04 105.77 0.04 105.77 3.19 101.8 3.19" style="fill:#f0871b"/><polygon points="80.08 25.3 80.08 0.04 92.01 0.04 92.01 3.19 84.05 3.19 84.05 10.57 89.03 10.57 89.03 13.73 84.05 13.73 84.05 22.16 92.01 22.16 92.01 25.3 80.08 25.3" style="fill:#f0871b"/><polygon points="66.17 25.3 66.17 0.04 78.11 0.04 78.11 3.19 70.15 3.19 70.15 10.57 75.13 10.57 75.13 13.73 70.15 13.73 70.15 22.16 78.11 22.16 78.11 25.3 66.17 25.3" style="fill:#f0871b"/><path d="M56.67,3.77H64.2c2.93,0,4.4,1.45,4.4,4.33v6.23q0,3.3-2.28,4.19L69,29H65.36L62.84,18.83H60.65V29h-4Zm4,12.18H63c1.14,0,1.6-.59,1.6-1.81V8.62c0-1.22-.44-1.69-1.59-1.69h-2.4Z" transform="translate(-4.56 -3.73)" style="fill:#f0871b"/><polygon points="46.45 3.19 46.45 25.3 42.46 25.3 42.46 3.19 38.49 3.19 38.49 0.04 50.42 0.04 50.42 3.19 46.45 3.19" style="fill:#f0871b"/><path d="M37.91,10.08V8.35c0-1-.51-1.44-1.66-1.45h-.61c-1.12,0-1.65.48-1.66,1.49l0,4a1.35,1.35,0,0,0,.28,1,8,8,0,0,0,1.06.64L39,15.85a19.38,19.38,0,0,1,1.73,1,2.57,2.57,0,0,1,.79.82,3.85,3.85,0,0,1,.27,1.82l0,5.38c0,2.85-1.61,4.25-4.77,4.22l-2.41,0c-3.13,0-4.69-1.59-4.66-4.69V22.66l3.94,0v1.73c0,1,.55,1.44,1.72,1.45h.69c1,0,1.52-.39,1.53-1.38l0-4.3c0-.47-.07-.78-.28-.94a9,9,0,0,0-1.06-.65l-3.7-1.83a11.54,11.54,0,0,1-1.77-1,2.2,2.2,0,0,1-.79-1A4.27,4.27,0,0,1,30,13.2L30,8q0-4.32,4.73-4.29l2.45,0c3.13,0,4.69,1.48,4.66,4.37v2Z" transform="translate(-4.56 -3.73)" style="fill:#f0871b"/><polygon points="23.95 25.08 20.36 25.08 18.28 15.54 18.2 15.54 15.69 25.08 12.25 25.08 15.77 12.4 12.25 0 15.88 0 18.2 9.26 18.28 9.26 20.59 0 24.03 0 20.71 12.4 23.95 25.08" style="fill:#313345"/><polygon points="8.83 10.45 8.82 13.64 3.92 13.64 3.92 25.08 0 25.08 0 0 10.22 0 11.08 3.13 3.92 3.13 3.92 10.45 8.83 10.45" style="fill:#313345"/></svg>