<?xml version="1.0" encoding="utf-8"?>
<!-- Generator: Adobe Illustrator 22.1.0, SVG Export Plug-In . SVG Version: 6.00 Build 0)  -->
<svg version="1.1" id="Capa_1" xmlns="http://www.w3.org/2000/svg" xmlns:xlink="http://www.w3.org/1999/xlink" x="0px" y="0px"
	 viewBox="0 0 1394.8 408.8" style="enable-background:new 0 0 1394.8 408.8;" xml:space="preserve">
<style type="text/css">
	.st0{fill:#F1881D;}
	.st1{fill:#FFFFFF;}
	.st2{fill:none;stroke:#FFFFFF;stroke-width:6.4267;stroke-miterlimit:10;}
</style>
<g>
	<g>
	</g>
</g>
<g>
	<g>
		<polygon class="st0" points="858.5,158 858.5,332.8 827,332.8 827,158 795.5,158 795.5,133.1 889.9,133.1 889.9,158 		"/>
		<polygon class="st0" points="686.8,332.8 686.8,133.1 781.1,133.1 781.1,158 718.2,158 718.2,216.3 757.6,216.3 757.6,241.3 
			718.3,241.3 718.2,307.9 781.1,307.9 781.1,332.8 		"/>
		<polygon class="st0" points="577,332.8 577,133.1 671.3,133.1 671.3,158 608.4,158 608.4,216.3 647.7,216.3 647.7,241.3 
			608.4,241.3 608.4,307.9 671.3,307.9 671.3,332.8 		"/>
		<g>
			<path class="st0" d="M465.8,133.1h59.5c23.2,0,34.8,11.4,34.8,34.2v49.2c0,17.4-6,28.5-18,33.1l21.2,83.2h-28.8l-19.9-80.6h-17.2
				v80.6l-31.5,0V133.1z M497.3,229.3h18.8c9.1,0,12.7-4.6,12.7-14.3l0-43.7c0-9.6-3.5-13.4-12.6-13.4h-19V229.3z"/>
			<polygon class="st0" points="421.1,158 421.1,332.8 389.6,332.8 389.6,158 358.2,158 358.2,133.1 452.5,133.1 452.5,158 			"/>
			<path class="st0" d="M317.5,183l0.1-13.7c0.1-8-4.1-11.3-13.1-11.4l-4.8,0c-8.8-0.1-13.1,3.8-13.1,11.8l-0.3,31.8
				c0,3.7,0.5,6.9,2.3,8.2c1.7,1.3,4.5,3,8.3,5.1l29.3,13.9c6.4,3.2,11,5.7,13.7,7.5c2.7,1.8,4.8,3.9,6.2,6.5
				c1.5,2.5,2.2,7.3,2.1,14.4l-0.3,42.6c-0.2,22.5-12.8,33.6-37.7,33.3l-19.1-0.2c-24.8-0.2-37-12.6-36.8-37.1l0-13.2l31.1,0.3
				l0.1,13.7c-0.1,7.8,4.4,11.4,13.6,11.5l5.4,0c8.2,0.1,12-3.1,12.1-10.9l0.3-34c0-3.7-0.5-6.1-2.2-7.4c-1.7-1.3-4.5-3-8.4-5.1
				L277,235.9c-6.4-3-11.1-5.6-14-7.6c-2.9-2.1-5-4.7-6.2-8c-1.3-3.2-1.9-7.5-1.8-12.7l0.3-40.9c0.2-22.8,12.6-34.1,37.4-33.9
				l19.4,0.2c24.8,0.2,37,11.8,36.9,34.6l-0.1,15.7L317.5,183z"/>
			<polygon class="st1" points="243.3,331 214.9,331 198.4,255.6 197.8,255.6 178,331 150.8,331 178.6,230.8 150.8,132.8 
				179.4,132.8 197.8,205.9 198.4,205.9 216.7,132.8 243.9,132.8 217.7,230.8 			"/>
			<polygon class="st1" points="123.7,215.4 123.7,240.6 85,240.6 85,331 54,331 54,132.8 134.7,132.8 141.6,157.5 85,157.5 
				85,215.4 			"/>
		</g>
	</g>
	<g>
		<path class="st1" d="M991,242l-10.4,10.2c-6.1-5.8-12.3-8.2-19.9-8.2c-9.6,0-17.2,4.8-17.2,13.1c0,6.5,3.8,9.5,17.2,14.1
			c14.7,4.7,25.3,11.6,25.3,27.2c0,13.8-9.6,33-40.2,33c-15.5,0-26.4-5.8-33.6-13.7l11-10.7c5.9,6.2,13.1,9.7,22.9,9.7
			c11.3,0,20.5-5.8,20.5-15.9c0-7.3-4.1-11-16.5-15.4c-17.5-5.5-25.7-13.3-25.7-26.8c0-12.7,10.6-28.9,36.1-28.9
			C973.9,229.7,983.5,234.3,991,242z"/>
		<path class="st1" d="M996.7,329.4l10.4-74.6h17.9l-10.4,74.6H996.7z M1031,228.5c-0.8,5.9-5.8,10.3-12.3,10.3
			c-6.8,0-10.9-5.1-10-11.4c0.8-6.1,5.8-10.4,12.3-10.4C1027.9,216.9,1031.9,222,1031,228.5z"/>
		<path class="st1" d="M1106.4,259.8l-9.7,65.6c-3.7,25.4-16.1,35-37,35c-9,0-19.3-3.1-27.1-7.8l6.3-12.6c5.9,3.4,13.1,5.9,20.2,5.9
			c9,0,17.6-2.7,20-18.9l1.1-8.2c-5.2,6.1-12.3,10.4-20.3,10.4c-15.8,0-24.4-11.4-24.4-28.5c0-21.4,11.3-48.3,42-48.3
			C1087,252.6,1096.4,254.6,1106.4,259.8z M1054.3,300.6c0,11.1,4.5,15.1,10.6,15.1c6.8,0,12.3-5.2,17.2-12l5.5-35.8
			c-3.5-1.4-6.1-2-10.2-2C1060.7,265.9,1054.3,285.1,1054.3,300.6z"/>
		<path class="st1" d="M1185.1,275.6l-7.6,53.8h-17.8l7.3-50.7c1.4-9.3-1.8-11.3-6.8-11.3c-6.6,0-13.5,8.6-19.2,19.2l-5.9,42.8
			h-17.8l10.4-74.6h15.4l-0.7,13.8c6.6-9.6,16.1-15.9,25.4-15.9C1180.5,252.6,1187.1,261.3,1185.1,275.6z"/>
		<path class="st1" d="M1268.2,259.8l-7.6,50.1c-0.1,1.3-0.3,2.3-0.3,3.1c0,3.8,1.6,5.2,4.4,6.3l-5.1,11.9
			c-7.9-0.8-13.8-4.4-15.5-12.4c-5.4,7.5-12.7,12.7-22.2,12.7c-15.8,0-24.1-11.6-24.1-29.2c0-21,11.1-49.7,41.5-49.7
			C1248.7,252.6,1258.1,254.6,1268.2,259.8z M1216.6,302.3c0,11.3,4.1,15.5,10.6,15.5c6.5,0,11.6-4.8,16.5-11.9l5.8-38.1
			c-3.5-1.4-6.1-2-10.3-2C1222.6,265.9,1216.6,286.7,1216.6,302.3z"/>
		<path class="st1" d="M1301.4,316.9c1.4,0,3-0.4,4.4-1l2.7,12.8c-4,1.8-8.3,2.7-12.4,2.7c-11.4,0-17.4-6.9-15.4-20.5l12.1-86.2
			l17.9-2l-12.4,88.8C1297.8,315.5,1298.7,316.9,1301.4,316.9z"/>
		<path class="st1" d="M1377.7,262.1l-8.3,10.4c-4.9-4.4-11.6-6.5-17.4-6.5c-8.2,0-12.6,3-12.6,7.9c0,4.8,3.8,6.6,14.7,10
			c13.3,4.1,20.2,10.6,20.2,22.7c0,14.8-12.7,24.8-32.5,24.8c-13.1,0-23.3-5.2-29.3-11.6l9.7-10.2c4.8,4.9,11.9,8.2,19.9,8.2
			c10.4,0,14.1-5.2,14.1-9.6c0-5.9-3.5-7.8-15.2-11.9c-13.1-4.4-19.5-10.9-19.5-21.2c0-11.4,10-22.7,30.5-22.7
			C1362,252.6,1371.4,256.3,1377.7,262.1z"/>
	</g>
	<polyline class="st2" points="927.5,204.9 970.6,203.4 1000.5,159.9 1019.6,220.3 1063,132.8 1099.7,218.8 1153.8,125.6 
		1193.1,192.7 1224.7,142.4 1277.8,204.2 1368.8,205.6 	"/>
	<path class="st1" d="M1163.7,122.4c-0.8,5.9-5.8,10.3-12.3,10.3c-6.8,0-10.9-5.1-10-11.4c0.8-6.1,5.8-10.4,12.3-10.4
		C1160.6,110.9,1164.6,115.9,1163.7,122.4z"/>
</g>
</svg>
