<?xml version="1.0" encoding="utf-8"?>
<!-- Generator: Adobe Illustrator 22.1.0, SVG Export Plug-In . SVG Version: 6.00 Build 0)  -->
<svg version="1.1" id="Capa_1" xmlns="http://www.w3.org/2000/svg" xmlns:xlink="http://www.w3.org/1999/xlink" x="0px" y="0px"
	 viewBox="0 0 113.5 32.4" style="enable-background:new 0 0 113.5 32.4;" xml:space="preserve">
<style type="text/css">
	.st0{fill:#E38506;}
	.st1{fill:#FFFFFF;}
</style>
<g>
	<polygon class="st0" points="102.9,7.8 102.9,27.8 99.3,27.8 99.3,7.8 95.7,7.8 95.7,5 106.5,5 106.5,7.8 	"/>
	<polygon class="st0" points="83.3,27.8 83.3,5 94.1,5 94.1,7.8 86.9,7.8 86.9,14.5 91.4,14.5 91.4,17.4 86.9,17.4 86.9,25 94.1,25 
		94.1,27.8 	"/>
	<polygon class="st0" points="70.7,27.8 70.7,5 81.5,5 81.5,7.8 74.3,7.8 74.3,14.5 78.8,14.5 78.8,17.4 74.3,17.4 74.3,25 81.5,25 
		81.5,27.8 	"/>
	<g>
		<path class="st0" d="M58,5h6.8c2.7,0,4,1.3,4,3.9v5.6c0,2-0.7,3.3-2.1,3.8l2.4,9.5h-3.3l-2.3-9.2h-2v9.2l-3.6,0V5z M61.6,16h2.2
			c1,0,1.5-0.5,1.5-1.6l0-5c0-1.1-0.4-1.5-1.4-1.5h-2.2V16z"/>
		<polygon class="st0" points="52.9,7.8 52.9,27.8 49.3,27.8 49.3,7.8 45.7,7.8 45.7,5 56.5,5 56.5,7.8 		"/>
		<path class="st0" d="M41.1,10.7l0-1.6c0-0.9-0.5-1.3-1.5-1.3l-0.6,0c-1,0-1.5,0.4-1.5,1.3l0,3.6c0,0.4,0.1,0.8,0.3,0.9
			c0.2,0.2,0.5,0.3,1,0.6l3.3,1.6c0.7,0.4,1.3,0.7,1.6,0.9c0.3,0.2,0.5,0.4,0.7,0.7c0.2,0.3,0.3,0.8,0.2,1.6l0,4.9
			c0,2.6-1.5,3.8-4.3,3.8l-2.2,0c-2.8,0-4.2-1.4-4.2-4.2l0-1.5l3.6,0l0,1.6c0,0.9,0.5,1.3,1.6,1.3l0.6,0c0.9,0,1.4-0.4,1.4-1.2
			l0-3.9c0-0.4-0.1-0.7-0.3-0.8c-0.2-0.2-0.5-0.3-1-0.6l-3.3-1.7c-0.7-0.3-1.3-0.6-1.6-0.9c-0.3-0.2-0.6-0.5-0.7-0.9
			c-0.1-0.4-0.2-0.9-0.2-1.4l0-4.7c0-2.6,1.4-3.9,4.3-3.9l2.2,0c2.8,0,4.2,1.3,4.2,4l0,1.8L41.1,10.7z"/>
		<polygon class="st1" points="32.6,27.6 29.3,27.6 27.4,19 27.4,19 25.1,27.6 22,27.6 25.2,16.2 22,5 25.3,5 27.4,13.3 27.4,13.3 
			29.5,5 32.6,5 29.6,16.2 		"/>
		<polygon class="st1" points="18.9,14.4 18.9,17.3 14.5,17.3 14.5,27.6 10.9,27.6 10.9,5 20.2,5 20.9,7.8 14.5,7.8 14.5,14.4 		"/>
	</g>
</g>
</svg>
