<svg xmlns="http://www.w3.org/2000/svg" viewBox="0 0 95.6 22.9"><title>FXStreet_logo</title><polygon points="92 2.9 92 22.9 88.4 22.9 88.4 2.9 84.8 2.9 84.8 0.1 95.6 0.1 95.6 2.9 92 2.9" style="fill:#e38506"/><polygon points="72.4 22.9 72.4 0.1 83.2 0.1 83.2 2.9 76 2.9 76 9.6 80.5 9.6 80.5 12.5 76 12.5 76 20.1 83.2 20.1 83.2 22.9 72.4 22.9" style="fill:#e38506"/><polygon points="59.8 22.9 59.8 0.1 70.6 0.1 70.6 2.9 63.4 2.9 63.4 9.6 67.9 9.6 67.9 12.5 63.4 12.5 63.4 20.1 70.6 20.1 70.6 22.9 59.8 22.9" style="fill:#e38506"/><path d="M58,5h6.8c2.7,0,4,1.3,4,3.9v5.6c0,2-.7,3.3-2.1,3.8l2.4,9.5H65.8l-2.3-9.2h-2v9.2H57.9V5Zm3.6,11h2.2c1,0,1.5-.5,1.5-1.6v-5c0-1.1-.4-1.5-1.4-1.5H61.7V16Z" transform="translate(-10.9 -4.9)" style="fill:#e38506"/><polygon points="42 2.9 42 22.9 38.4 22.9 38.4 2.9 34.8 2.9 34.8 0.1 45.6 0.1 45.6 2.9 42 2.9" style="fill:#e38506"/><path d="M41.1,10.7V9.1c0-.9-.5-1.3-1.5-1.3H39c-1,0-1.5.4-1.5,1.3v3.6c0,.4.1.8.3.9a6.36,6.36,0,0,0,1,.6l3.3,1.6c.7.4,1.3.7,1.6.9a2.34,2.34,0,0,1,.7.7,2.37,2.37,0,0,1,.2,1.6v4.9c0,2.6-1.5,3.8-4.3,3.8H38.1q-4.2,0-4.2-4.2V22h3.6v1.6c0,.9.5,1.3,1.6,1.3h.6c.9,0,1.4-.4,1.4-1.2V19.8c0-.4-.1-.7-.3-.8a6.36,6.36,0,0,0-1-.6l-3.3-1.7a5.65,5.65,0,0,1-1.6-.9,1.6,1.6,0,0,1-.7-.9,5.9,5.9,0,0,1-.2-1.4V8.8c0-2.6,1.4-3.9,4.3-3.9h2.2c2.8,0,4.2,1.3,4.2,4v1.8Z" transform="translate(-10.9 -4.9)" style="fill:#e38506"/><polygon points="21.7 22.7 18.4 22.7 16.5 14.1 16.5 14.1 14.2 22.7 11.1 22.7 14.3 11.3 11.1 0.1 14.4 0.1 16.5 8.4 16.5 8.4 18.6 0.1 21.7 0.1 18.7 11.3 21.7 22.7" style="fill:#fff"/><polygon points="8 9.5 8 12.4 3.6 12.4 3.6 22.7 0 22.7 0 0.1 9.3 0.1 10 2.9 3.6 2.9 3.6 9.5 8 9.5" style="fill:#fff"/></svg>