<?xml version="1.0" encoding="iso-8859-1"?>
<!-- Generator: Adobe Illustrator 18.0.0, SVG Export Plug-In . SVG Version: 6.00 Build 0)  -->
<!DOCTYPE svg PUBLIC "-//W3C//DTD SVG 1.1//EN" "http://www.w3.org/Graphics/SVG/1.1/DTD/svg11.dtd">
<svg version="1.1" id="Capa_1" xmlns="http://www.w3.org/2000/svg" xmlns:xlink="http://www.w3.org/1999/xlink" x="0px" y="0px"
	 viewBox="0 0 489.883 489.883" style="enable-background:new 0 0 489.883 489.883;" xml:space="preserve">
<g>
	<path d="M486.808,363.353l-73.415-73.418c3.164-8.944,2.168-18.749,1.257-27.57c-0.7-6.777-1.361-13.179-0.118-17.832
		c1.15-4.303,4.813-9.333,8.691-14.658c6.342-8.707,13.53-18.576,13.53-30.783c0-12.208-7.188-22.076-13.53-30.783
		c-3.878-5.325-7.542-10.354-8.691-14.658c-1.244-4.652-0.582-11.055,0.118-17.833c1.088-10.529,2.321-22.463-3.578-32.658
		c-5.98-10.337-17.025-15.248-26.769-19.581c-6.146-2.733-11.952-5.315-15.243-8.606c-3.292-3.292-5.873-9.097-8.606-15.244
		c-4.332-9.744-9.244-20.788-19.581-26.768c-5.299-3.067-11.426-4.495-19.28-4.495c-4.508,0-9.017,0.466-13.377,0.917
		c-4.04,0.417-7.855,0.812-11.339,0.812c-2.624,0-4.748-0.227-6.494-0.694c-4.304-1.15-9.333-4.813-14.658-8.691
		c-8.707-6.341-18.576-13.529-30.783-13.529c-12.207,0-22.076,7.188-30.783,13.529c-5.325,3.878-10.354,7.542-14.659,8.691
		c-1.746,0.467-3.87,0.694-6.493,0.694c-3.485,0-7.3-0.395-11.34-0.812c-4.36-0.451-8.869-0.917-13.378-0.917
		c-7.854,0-13.98,1.428-19.278,4.494c-10.338,5.98-15.249,17.025-19.582,26.77c-2.733,6.146-5.315,11.951-8.605,15.243
		c-3.292,3.292-9.098,5.873-15.244,8.607c-9.744,4.332-20.788,9.243-26.77,19.581c-5.898,10.194-4.665,22.128-3.578,32.657
		c0.7,6.778,1.362,13.181,0.118,17.833c-1.15,4.304-4.813,9.333-8.691,14.658c-6.341,8.707-13.529,18.575-13.529,30.783
		c0,12.208,7.188,22.076,13.529,30.783c3.878,5.325,7.541,10.355,8.691,14.659c1.244,4.652,0.582,11.054-0.118,17.832
		c-0.912,8.821-1.908,18.625,1.256,27.57L3.075,363.353c-2.829,2.829-3.804,7.02-2.516,10.807c1.289,3.787,4.618,6.513,8.585,7.029
		l81.642,10.625l10.624,81.641c0.516,3.967,3.242,7.297,7.03,8.585c1.107,0.376,2.248,0.56,3.38,0.56
		c2.741,0,5.425-1.074,7.427-3.077l99.108-99.131c7.671,5.402,16.296,10.51,26.585,10.51c10.289,0,18.914-5.108,26.585-10.51
		l99.108,99.131c2.002,2.002,4.686,3.077,7.427,3.077c1.132,0,2.273-0.184,3.38-0.56c3.788-1.289,6.514-4.618,7.03-8.585
		l10.624-81.641l81.642-10.625c3.967-0.516,7.296-3.242,8.585-7.03C490.612,370.373,489.636,366.182,486.808,363.353z
		 M110.569,381.091c-0.615-4.724-4.333-8.442-9.057-9.057l-68.503-8.915l56.747-56.749c4.996,3.409,10.595,5.91,15.825,8.236
		c6.146,2.733,11.952,5.314,15.243,8.605c3.292,3.292,5.873,9.097,8.606,15.243c4.333,9.745,9.244,20.789,19.581,26.769
		c5.299,3.067,11.425,4.495,19.279,4.495c4.508,0,9.017-0.466,13.377-0.917c4.04-0.417,7.854-0.811,11.339-0.811
		c2.623,0,4.748,0.227,6.495,0.694c0.22,0.059,0.444,0.128,0.668,0.2l-80.686,80.705L110.569,381.091z M226.522,360.4
		c-6.645-4.84-13.517-9.844-21.598-12.004c-3.54-0.946-7.438-1.407-11.918-1.407c-4.566,0-9.107,0.469-13.497,0.923
		c-4.008,0.414-7.793,0.805-11.219,0.805c-3.952,0-6.818-0.547-8.762-1.672c-4.436-2.566-7.727-9.967-10.909-17.124
		c-3.391-7.627-6.898-15.512-12.945-21.56c-6.048-6.047-13.934-9.554-21.56-12.945c-7.157-3.182-14.559-6.473-17.125-10.91
		c-2.486-4.296-1.662-12.27-0.866-19.981c0.865-8.371,1.759-17.026-0.482-25.413c-2.161-8.083-7.165-14.954-12.004-21.599
		c-4.887-6.711-9.504-13.05-9.504-18.42c0-5.371,4.616-11.709,9.504-18.419c4.839-6.645,9.844-13.517,12.004-21.599
		c2.242-8.388,1.348-17.043,0.482-25.414c-0.796-7.711-1.62-15.685,0.865-19.981c2.567-4.436,9.968-7.727,17.126-10.91
		c7.627-3.391,15.513-6.898,21.562-12.946c6.046-6.048,9.553-13.934,12.944-21.56c3.183-7.157,6.473-14.558,10.911-17.125
		c1.943-1.125,4.809-1.671,8.761-1.671c3.426,0,7.212,0.391,11.219,0.805c4.391,0.454,8.931,0.923,13.498,0.923
		c4.48,0,8.378-0.46,11.916-1.406c8.083-2.16,14.954-7.164,21.6-12.004c6.711-4.887,13.049-9.504,18.42-9.504
		c5.37,0,11.709,4.617,18.42,9.504c6.645,4.84,13.517,9.844,21.599,12.004c3.539,0.946,7.437,1.406,11.916,1.406
		c4.566,0,9.106-0.469,13.497-0.923c4.008-0.414,7.793-0.805,11.22-0.805c3.953,0,6.819,0.547,8.763,1.671
		c4.436,2.567,7.727,9.967,10.909,17.124c3.391,7.626,6.898,15.512,12.945,21.56c6.047,6.048,13.934,9.555,21.56,12.946
		c7.157,3.183,14.558,6.473,17.124,10.91c2.486,4.297,1.663,12.271,0.866,19.983c-0.865,8.37-1.759,17.025,0.482,25.412
		c2.16,8.083,7.165,14.954,12.005,21.599c4.888,6.711,9.504,13.049,9.504,18.42c0,5.371-4.617,11.709-9.504,18.42
		c-4.84,6.645-9.845,13.516-12.005,21.599c-2.241,8.387-1.347,17.042-0.483,25.411c0.797,7.712,1.621,15.687-0.867,19.985
		c-2.566,4.436-9.966,7.726-17.124,10.908c-7.626,3.391-15.513,6.897-21.561,12.946c-6.046,6.047-9.552,13.933-12.943,21.559
		c-3.183,7.158-6.473,14.559-10.911,17.126c-1.942,1.124-4.809,1.671-8.762,1.671c-3.426,0-7.211-0.391-11.219-0.805
		c-4.391-0.454-8.93-0.923-13.497-0.923c-4.48,0-8.379,0.46-11.917,1.406c-8.082,2.16-14.954,7.165-21.599,12.004
		c-6.711,4.887-13.05,9.504-18.42,9.504C239.572,369.904,233.233,365.287,226.522,360.4z M388.372,372.033
		c-4.724,0.615-8.442,4.333-9.057,9.057l-8.914,68.499l-80.686-80.705c0.225-0.072,0.449-0.142,0.669-0.201
		c1.746-0.467,3.87-0.694,6.494-0.694c3.484,0,7.299,0.395,11.338,0.811c4.361,0.451,8.87,0.917,13.377,0.917
		c7.854,0,13.981-1.429,19.278-4.494c10.339-5.98,15.25-17.026,19.583-26.771c2.732-6.146,5.314-11.951,8.604-15.242
		c3.292-3.291,9.097-5.873,15.244-8.605c5.231-2.326,10.831-4.827,15.826-8.236l56.748,56.75L388.372,372.033z"/>
	<path d="M312.846,302.583c3.287-2.388,4.901-6.457,4.145-10.449l-12.034-63.513l47.066-44.308c2.958-2.785,4.044-7.026,2.789-10.89
		c-1.256-3.864-4.627-6.657-8.658-7.171l-64.122-8.181l-27.595-58.458c-1.734-3.674-5.432-6.018-9.495-6.018
		c-4.062,0-7.761,2.344-9.495,6.018l-27.596,58.458l-64.121,8.181c-4.03,0.514-7.402,3.307-8.658,7.171
		c-1.255,3.864-0.169,8.105,2.789,10.89l47.066,44.308l-12.035,63.513c-0.756,3.992,0.858,8.061,4.145,10.449
		c1.831,1.33,3.997,2.005,6.173,2.005c1.73,0,3.468-0.427,5.046-1.292l56.686-31.071l56.685,31.071
		C305.19,305.249,309.56,304.972,312.846,302.583z M249.989,251.043c-1.572-0.862-3.31-1.292-5.047-1.292
		c-1.737,0-3.475,0.431-5.047,1.292l-42.229,23.147l8.965-47.314c0.667-3.522-0.509-7.142-3.119-9.6l-35.062-33.007l47.767-6.094
		c3.556-0.454,6.636-2.691,8.166-5.933l20.558-43.548l20.557,43.548c1.53,3.242,4.61,5.479,8.166,5.933l47.769,6.094l-35.062,33.007
		c-2.61,2.457-3.787,6.077-3.119,9.6l8.965,47.314L249.989,251.043z"/>
</g>
<g>
</g>
<g>
</g>
<g>
</g>
<g>
</g>
<g>
</g>
<g>
</g>
<g>
</g>
<g>
</g>
<g>
</g>
<g>
</g>
<g>
</g>
<g>
</g>
<g>
</g>
<g>
</g>
<g>
</g>
</svg>
