<?xml version="1.0" encoding="iso-8859-1"?>
<!-- Generator: Adobe Illustrator 19.0.0, SVG Export Plug-In . SVG Version: 6.00 Build 0)  -->
<svg version="1.1" id="Capa_1" xmlns="http://www.w3.org/2000/svg" xmlns:xlink="http://www.w3.org/1999/xlink" x="0px" y="0px"
	 viewBox="0 0 496.941 496.941" style="enable-background:new 0 0 496.941 496.941;" xml:space="preserve">
<g>
	<g>
		<g>
			<path d="M405.835,168.659c4.518,0,7.529-3.012,7.529-7.529s-3.012-7.529-7.529-7.529h-9.788H17.318H7.529
				C3.012,153.6,0,156.612,0,161.129s3.012,7.529,7.529,7.529h6.023l150.588,229.647v91.106c0,4.518,3.012,7.529,7.529,7.529h70.776
				c4.518,0,7.529-3.012,7.529-7.529v-91.106l150.588-229.647H405.835z M235.671,391.529c-0.753,1.506-1.506,3.012-1.506,3.765
				v86.588h-55.718v-85.835c0-1.506-0.753-3.012-1.506-3.765L30.871,168.659h350.871L235.671,391.529z"/>
			<path d="M234.165,352.376c3.765,2.259,8.282,1.506,10.541-2.259l98.635-151.341c2.259-3.765,1.506-8.282-2.259-10.541
				c-3.765-2.259-8.282-1.506-10.541,2.259l-98.635,152.094C229.647,345.6,230.4,350.118,234.165,352.376z"/>
			<path d="M399.812,302.682c-53.459,0-97.129,43.671-97.129,97.129c0,53.459,43.671,97.129,97.129,97.129
				c53.459,0,97.129-43.671,97.129-97.129C496.941,346.353,453.271,302.682,399.812,302.682z M399.812,481.882
				c-45.177,0-82.071-36.894-82.071-82.071c0-45.177,36.894-82.071,82.071-82.071c45.176,0,82.071,36.894,82.071,82.071
				C481.882,444.988,444.988,481.882,399.812,481.882z"/>
			<path d="M93.365,121.224c1.506,1.506,3.765,2.259,5.271,2.259c1.506,0,3.765,0,5.271-2.259l34.635-35.388
				c3.012-3.012,3.012-7.529,0-10.541c-3.012-3.012-7.529-3.012-10.541,0l-21.835,22.588V7.529c0-4.518-3.012-7.529-7.529-7.529
				c-4.518,0-7.529,3.012-7.529,7.529v90.353L70.024,76.8c-3.012-3.012-7.529-3.012-10.541,0s-3.012,7.529,0,10.541L93.365,121.224z
				"/>
			<path d="M201.035,121.224c1.506,1.506,3.012,2.259,5.271,2.259c1.506,0,3.765-0.753,5.271-2.259l34.635-35.388
				c3.012-3.012,3.012-7.529,0-10.541c-3.012-3.012-7.529-3.012-10.541,0l-21.835,22.588V7.529c0-4.518-3.012-7.529-7.529-7.529
				c-4.518,0-7.529,3.012-7.529,7.529v90.353L177.694,76.8c-3.012-3.012-7.529-3.012-10.541,0c-3.012,3.012-3.012,7.529,0,10.541
				C167.906,88.847,199.529,120.471,201.035,121.224z"/>
			<path d="M308.706,121.224c1.506,1.506,3.765,2.259,5.271,2.259c1.506,0,3.765,0,5.271-2.259l34.635-35.388
				c3.012-3.012,3.012-7.529,0-10.541s-7.529-3.012-10.541,0l-21.835,22.588V7.529c0-4.518-3.012-7.529-7.529-7.529
				c-4.518,0-7.529,3.012-7.529,7.529v90.353L285.365,76.8c-3.012-3.012-7.529-3.012-10.541,0s-3.012,7.529,0,10.541
				L308.706,121.224z"/>
			<path d="M436.706,400.565c-6.023-5.271-15.812-9.035-29.365-12.047l-0.753-32.376c9.035,1.506,17.318,4.518,24.847,9.788
				l11.294-15.812c-11.294-7.529-23.341-12.047-35.388-12.8v-9.035h-11.294v8.282c-11.294,0.753-20.329,3.765-27.106,10.541
				c-6.776,6.024-10.541,14.306-10.541,24.094c0,9.788,3.012,17.318,9.035,22.588c6.023,5.271,15.812,9.035,28.612,12.047v33.129
				c-9.788-1.506-20.329-6.776-29.365-15.059l-12.8,15.059c12.8,10.541,26.353,17.318,42.165,18.823v12.8h11.294v-12.047
				c11.294-0.753,21.082-3.765,27.859-10.541c6.776-6.024,10.541-14.306,10.541-24.847
				C445.741,412.612,442.729,405.835,436.706,400.565z M379.482,369.694c0-3.765,1.506-6.776,4.518-9.788
				c3.012-2.259,6.776-3.765,12.047-4.518v30.118c-6.024-2.259-10.541-4.518-12.8-6.776
				C380.988,376.471,379.482,373.459,379.482,369.694z M420.141,435.2c-3.012,3.012-7.529,4.518-12.8,4.518v-30.871
				c6.776,2.259,11.294,4.518,14.306,6.776c2.259,2.259,3.765,5.271,3.765,9.788C424.659,429.176,423.153,432.941,420.141,435.2z"/>
		</g>
	</g>
</g>
<g>
</g>
<g>
</g>
<g>
</g>
<g>
</g>
<g>
</g>
<g>
</g>
<g>
</g>
<g>
</g>
<g>
</g>
<g>
</g>
<g>
</g>
<g>
</g>
<g>
</g>
<g>
</g>
<g>
</g>
</svg>
